<svg xmlns="http://www.w3.org/2000/svg" viewBox="0 0 428 398" fill="currentColor">
  <path fill-rule="evenodd" d="M 382 53 L 381 54 L 380 54 L 378 56 L 377 56 L 375 58 L 375 59 L 374 60 L 374 61 L 373 62 L 373 70 L 374 71 L 374 73 L 380 79 L 382 79 L 383 80 L 386 80 L 387 81 L 389 81 L 390 80 L 393 80 L 394 79 L 395 79 L 397 77 L 398 77 L 399 76 L 399 75 L 401 73 L 401 71 L 402 70 L 402 63 L 401 62 L 401 61 L 400 60 L 400 59 L 396 55 L 395 55 L 394 54 L 393 54 L 392 53 Z M 174 33 L 155 51 L 140 75 L 60 292 L 21 362 L 22 368 L 28 372 L 91 372 L 98 369 L 105 362 L 133 302 L 147 286 L 174 269 L 261 236 L 313 354 L 321 366 L 335 372 L 393 372 L 400 369 L 402 365 L 401 357 L 371 304 L 325 191 L 356 139 L 376 87 L 348 125 L 315 154 L 277 65 L 257 40 L 243 30 L 223 22 L 200 22 Z " />
</svg>